<mxfile host="app.diagrams.net" agent="Mozilla/5.0 (X11; Ubuntu; Linux x86_64; rv:143.0) Gecko/20100101 Firefox/143.0" version="28.2.5">
  <diagram name="Page-1" id="lmw2IpFKNlSFhT6q0ISD">
    <mxGraphModel dx="1343" dy="552" grid="1" gridSize="10" guides="1" tooltips="1" connect="1" arrows="1" fold="1" page="1" pageScale="1" pageWidth="850" pageHeight="1100" math="0" shadow="0">
      <root>
        <mxCell id="0" />
        <mxCell id="1" parent="0" />
        <mxCell id="8Ey65paumkvzwZUdJSZX-25" style="edgeStyle=orthogonalEdgeStyle;rounded=0;orthogonalLoop=1;jettySize=auto;html=1;dashed=1;strokeWidth=3;fontSize=19;" edge="1" parent="1" source="8Ey65paumkvzwZUdJSZX-22" target="8Ey65paumkvzwZUdJSZX-21">
          <mxGeometry relative="1" as="geometry" />
        </mxCell>
        <mxCell id="8Ey65paumkvzwZUdJSZX-26" value="WIFI" style="edgeLabel;html=1;align=center;verticalAlign=middle;resizable=0;points=[];fontSize=15;" vertex="1" connectable="0" parent="8Ey65paumkvzwZUdJSZX-25">
          <mxGeometry x="0.1204" y="-1" relative="1" as="geometry">
            <mxPoint x="-11" y="-1" as="offset" />
          </mxGeometry>
        </mxCell>
        <mxCell id="8Ey65paumkvzwZUdJSZX-22" value="" style="rounded=0;whiteSpace=wrap;html=1;fillColor=#f5f5f5;fontColor=#333333;strokeColor=#666666;" vertex="1" parent="1">
          <mxGeometry x="60" y="130" width="370" height="300" as="geometry" />
        </mxCell>
        <mxCell id="8Ey65paumkvzwZUdJSZX-21" value="" style="rounded=0;whiteSpace=wrap;html=1;fillColor=#f5f5f5;fontColor=#333333;strokeColor=#666666;" vertex="1" parent="1">
          <mxGeometry x="600" y="130" width="480" height="300" as="geometry" />
        </mxCell>
        <mxCell id="8Ey65paumkvzwZUdJSZX-1" value="" style="rounded=1;whiteSpace=wrap;html=1;" vertex="1" parent="1">
          <mxGeometry x="610" y="160" width="310" height="240" as="geometry" />
        </mxCell>
        <mxCell id="8Ey65paumkvzwZUdJSZX-2" value="Shared PC" style="text;html=1;align=center;verticalAlign=middle;whiteSpace=wrap;rounded=0;fontStyle=1" vertex="1" parent="1">
          <mxGeometry x="825" y="130" width="95" height="30" as="geometry" />
        </mxCell>
        <mxCell id="8Ey65paumkvzwZUdJSZX-3" value="Node 1" style="text;html=1;align=center;verticalAlign=middle;whiteSpace=wrap;rounded=0;" vertex="1" parent="1">
          <mxGeometry x="735" y="170" width="60" height="30" as="geometry" />
        </mxCell>
        <mxCell id="8Ey65paumkvzwZUdJSZX-6" style="edgeStyle=orthogonalEdgeStyle;rounded=0;orthogonalLoop=1;jettySize=auto;html=1;exitX=0.5;exitY=1;exitDx=0;exitDy=0;entryX=0.5;entryY=0;entryDx=0;entryDy=0;endArrow=none;endFill=0;" edge="1" parent="1" source="8Ey65paumkvzwZUdJSZX-4" target="8Ey65paumkvzwZUdJSZX-5">
          <mxGeometry relative="1" as="geometry" />
        </mxCell>
        <mxCell id="8Ey65paumkvzwZUdJSZX-4" value="Ankaios Server" style="rounded=1;whiteSpace=wrap;html=1;fillColor=#f8cecc;strokeColor=#b85450;" vertex="1" parent="1">
          <mxGeometry x="705" y="210" width="120" height="20" as="geometry" />
        </mxCell>
        <mxCell id="8Ey65paumkvzwZUdJSZX-9" style="edgeStyle=orthogonalEdgeStyle;rounded=0;orthogonalLoop=1;jettySize=auto;html=1;exitX=0.5;exitY=1;exitDx=0;exitDy=0;endArrow=none;endFill=0;" edge="1" parent="1" source="8Ey65paumkvzwZUdJSZX-5" target="8Ey65paumkvzwZUdJSZX-7">
          <mxGeometry relative="1" as="geometry" />
        </mxCell>
        <mxCell id="8Ey65paumkvzwZUdJSZX-10" style="edgeStyle=orthogonalEdgeStyle;rounded=0;orthogonalLoop=1;jettySize=auto;html=1;exitX=0.5;exitY=1;exitDx=0;exitDy=0;entryX=0.5;entryY=0;entryDx=0;entryDy=0;endArrow=none;endFill=0;" edge="1" parent="1" source="8Ey65paumkvzwZUdJSZX-5" target="8Ey65paumkvzwZUdJSZX-8">
          <mxGeometry relative="1" as="geometry" />
        </mxCell>
        <mxCell id="8Ey65paumkvzwZUdJSZX-5" value="Ankaios Agent" style="rounded=1;whiteSpace=wrap;html=1;fillColor=#e1d5e7;strokeColor=#9673a6;" vertex="1" parent="1">
          <mxGeometry x="705" y="260" width="120" height="20" as="geometry" />
        </mxCell>
        <mxCell id="8Ey65paumkvzwZUdJSZX-7" value="&lt;div&gt;Workload 1&lt;/div&gt;&lt;div&gt;&lt;br&gt;&lt;/div&gt;&lt;div&gt;MQTT Mosquitto Broker&lt;/div&gt;" style="rounded=0;whiteSpace=wrap;html=1;fillColor=#d5e8d4;strokeColor=#82b366;" vertex="1" parent="1">
          <mxGeometry x="630" y="310" width="120" height="60" as="geometry" />
        </mxCell>
        <mxCell id="8Ey65paumkvzwZUdJSZX-8" value="&lt;div&gt;Workload 2&lt;/div&gt;&lt;div&gt;&lt;br&gt;&lt;/div&gt;&lt;div&gt;uProtocol - uStreamer&lt;/div&gt;" style="rounded=0;whiteSpace=wrap;html=1;fillColor=#d5e8d4;strokeColor=#82b366;" vertex="1" parent="1">
          <mxGeometry x="782.5" y="310" width="117.5" height="60" as="geometry" />
        </mxCell>
        <mxCell id="8Ey65paumkvzwZUdJSZX-11" value="" style="rounded=1;whiteSpace=wrap;html=1;" vertex="1" parent="1">
          <mxGeometry x="100" y="160" width="310" height="240" as="geometry" />
        </mxCell>
        <mxCell id="8Ey65paumkvzwZUdJSZX-12" value="USER PC x" style="text;html=1;align=center;verticalAlign=middle;whiteSpace=wrap;rounded=0;fontStyle=1" vertex="1" parent="1">
          <mxGeometry x="207.5" y="130" width="95" height="30" as="geometry" />
        </mxCell>
        <mxCell id="8Ey65paumkvzwZUdJSZX-13" value="Node x" style="text;html=1;align=center;verticalAlign=middle;whiteSpace=wrap;rounded=0;" vertex="1" parent="1">
          <mxGeometry x="225" y="170" width="60" height="30" as="geometry" />
        </mxCell>
        <mxCell id="8Ey65paumkvzwZUdJSZX-14" style="edgeStyle=orthogonalEdgeStyle;rounded=0;orthogonalLoop=1;jettySize=auto;html=1;exitX=0.5;exitY=1;exitDx=0;exitDy=0;entryX=0.5;entryY=0;entryDx=0;entryDy=0;endArrow=none;endFill=0;" edge="1" parent="1" source="8Ey65paumkvzwZUdJSZX-15" target="8Ey65paumkvzwZUdJSZX-18">
          <mxGeometry relative="1" as="geometry" />
        </mxCell>
        <mxCell id="8Ey65paumkvzwZUdJSZX-15" value="Ankaios Server" style="rounded=1;whiteSpace=wrap;html=1;fillColor=#f8cecc;strokeColor=#b85450;" vertex="1" parent="1">
          <mxGeometry x="195" y="210" width="120" height="20" as="geometry" />
        </mxCell>
        <mxCell id="8Ey65paumkvzwZUdJSZX-16" style="edgeStyle=orthogonalEdgeStyle;rounded=0;orthogonalLoop=1;jettySize=auto;html=1;exitX=0.5;exitY=1;exitDx=0;exitDy=0;endArrow=none;endFill=0;" edge="1" parent="1" source="8Ey65paumkvzwZUdJSZX-18" target="8Ey65paumkvzwZUdJSZX-19">
          <mxGeometry relative="1" as="geometry" />
        </mxCell>
        <mxCell id="8Ey65paumkvzwZUdJSZX-17" style="edgeStyle=orthogonalEdgeStyle;rounded=0;orthogonalLoop=1;jettySize=auto;html=1;exitX=0.5;exitY=1;exitDx=0;exitDy=0;entryX=0.5;entryY=0;entryDx=0;entryDy=0;endArrow=none;endFill=0;" edge="1" parent="1" source="8Ey65paumkvzwZUdJSZX-18" target="8Ey65paumkvzwZUdJSZX-20">
          <mxGeometry relative="1" as="geometry" />
        </mxCell>
        <mxCell id="8Ey65paumkvzwZUdJSZX-18" value="Ankaios Agent" style="rounded=1;whiteSpace=wrap;html=1;fillColor=#e1d5e7;strokeColor=#9673a6;" vertex="1" parent="1">
          <mxGeometry x="195" y="260" width="120" height="20" as="geometry" />
        </mxCell>
        <mxCell id="8Ey65paumkvzwZUdJSZX-19" value="&lt;div&gt;Workload 1&lt;/div&gt;&lt;div&gt;&lt;br&gt;&lt;/div&gt;&lt;div&gt;i.e. Rust App&lt;/div&gt;" style="rounded=0;whiteSpace=wrap;html=1;fillColor=#d5e8d4;strokeColor=#82b366;" vertex="1" parent="1">
          <mxGeometry x="120" y="310" width="120" height="60" as="geometry" />
        </mxCell>
        <mxCell id="8Ey65paumkvzwZUdJSZX-20" value="&lt;div&gt;Workload 2&lt;/div&gt;&lt;div&gt;&lt;br&gt;&lt;/div&gt;&lt;div&gt;i.e.&amp;nbsp;Python App&lt;/div&gt;" style="rounded=0;whiteSpace=wrap;html=1;fillColor=#d5e8d4;strokeColor=#82b366;" vertex="1" parent="1">
          <mxGeometry x="272.5" y="310" width="117.5" height="60" as="geometry" />
        </mxCell>
        <mxCell id="8Ey65paumkvzwZUdJSZX-23" value="CARLA" style="rounded=1;whiteSpace=wrap;html=1;fillColor=#fff2cc;strokeColor=#d6b656;" vertex="1" parent="1">
          <mxGeometry x="940" y="160" width="120" height="40" as="geometry" />
        </mxCell>
        <mxCell id="8Ey65paumkvzwZUdJSZX-24" value="Android Studio" style="rounded=1;whiteSpace=wrap;html=1;fillColor=#fff2cc;strokeColor=#d6b656;" vertex="1" parent="1">
          <mxGeometry x="940" y="220" width="120" height="40" as="geometry" />
        </mxCell>
      </root>
    </mxGraphModel>
  </diagram>
</mxfile>
